Patient4_TMGait_0pt6_02_right_17_EMG.mot
version=1
nRows=13
nColumns=33
inDegrees=no
endheader
time	1LAddLong	2LGlutMax	3LGlutMed	4LIliopsoas	5LSemiMemb	6LBicFemLong	7LRecFem	8LVastMed	9LVastLat	10LGasMed	11LTibAnt	12lTibPost	13LPeroneusLong	14LSol	15LExtDigLong	16LFlexDigLong	17RAddLong	18RGlutMax	19RGlutMed	20RIliopsoas	21RSemiMemb	22RBicFemLong	23RRecFem	24RVastMed	25RVastLat	26RGasMed	27RTibAnt	28RTibPost	29RPeroneusLong	30RSol	31RExtDigLong	32RFlexDigLong
21.578	0.017548	0.01358	-0.061646	0.049133	-0.020447	-0.26947	0.00473	-0.001526	-0.037079	-0.14618	-0.044403	-0.098419	-0.6575	-0.20111	0.28732	0.02533	0.060272	-0.021515	-0.16068	-0.034332	-0.10757	-0.024872	-0.98419	-0.31296	-0.11643	0.010529	-0.52139	-0.003662	-0.081329	-0.14801	0.000305	-0.007477
21.579	0.0177	0.019836	-0.13229	0.045776	-0.052185	-0.30624	0.039215	-0.000763	-0.025635	-0.29816	-0.036316	0.16785	-0.19638	-0.29831	0.31097	-1.4656	0.079498	-0.034485	-0.18753	0.004883	-0.071869	-0.043945	-0.84	-0.28686	-0.0914	0.009766	-0.64667	-0.002136	0.24292	-0.103	-0.000305	-0.002136
21.58	0.021515	-0.033722	-0.079651	0.011749	-0.024414	-0.24918	0.12009	-0.00061	-0.016785	-0.16785	0.04715	0.16312	1.5845	-0.31479	0.38361	0.64545	0.1001	-0.055695	-0.086823	0.13428	0.015411	-0.042725	-0.79178	-0.18784	-0.066376	0.007935	-0.57709	-0.006561	0.38605	-0.10025	0.003967	-0.002136
21.581	0.031738	-0.032806	-0.009766	0.007935	0.097046	-0.31403	0.14664	-0.00351	-0.055084	-0.45227	0.11139	-0.1358	0.94711	-0.10284	0.35721	1.0298	0.046539	-0.050964	0.20294	0.18265	0.072632	0.011597	-0.67917	-0.049286	-0.019836	0	-0.24887	-0.005188	-0.5954	-0.097809	0.003052	-0.012665
21.582	0.027771	-0.063019	0.04303	0.012512	0.15198	-0.18768	0.26108	0.001221	0.007324	-0.090027	0.015564	-0.047607	-0.28549	-0.16419	0.13489	-0.071259	-0.021515	-0.055389	0.30289	0.082092	0.00946	-0.040588	-0.51132	0.032043	0.020905	-0.006866	-0.10956	0	0.13062	-0.010529	0.001678	-0.003662
21.583	0.025024	-0.024719	0.004883	0.002899	0.12604	0.027771	0.29984	0.019989	0.0914	-0.14221	-0.022278	0.06073	-0.56122	-0.47058	-0.067291	0.26443	-0.027771	-0.023499	0.29251	0.016785	-0.06424	-0.091858	-0.32181	0.060272	0.02594	-0.001678	0.050812	-0.003815	0.42435	-0.00473	0.001526	-0.007782
21.584	0.019989	-0.080872	-0.073853	0.00412	0.085144	0.086365	0.18677	0.022125	0.050049	-0.20538	0.027466	-0.39566	-0.38437	-0.5072	-0.16907	-0.15213	-0.035095	-0.028687	0.092621	-0.005798	-0.12634	-0.016785	-0.20599	-0.054169	0.045166	0.015411	0.053101	-0.007324	0.40436	0.0354	0.002594	-0.005188
21.585	0.012054	-0.055389	-0.016937	0.006714	0.06897	0.069885	-0.05661	0.027924	0.066223	0.044403	0.017395	0.092163	-0.50064	-0.002289	0.015259	0.31845	-0.033875	-0.012512	0.14893	0.008087	-0.18051	0.025635	-0.19455	0.00473	0.075378	0.015411	-0.05188	-0.008087	0.35019	0.002441	-0.002136	-0.001831
21.586	0.013275	-0.050201	-0.078278	0.005646	0.051117	0.14542	-0.16007	0.022888	0.067749	0.72449	-0.019684	0.29159	-0.070038	0.077667	0.048065	0.14832	-0.030975	0.017548	0.11643	0.003052	-0.044098	0.086823	-0.17288	0.11475	0.14969	0.00824	0.02594	-0.007019	-0.27451	-0.057831	0.000458	-0.005493
21.587	0.004425	-0.038452	-0.11826	0.022125	0.024414	0.22171	-0.10468	0.006866	0.14526	1.2398	0.003357	0.22842	0.006714	0.21179	-0.080719	-0.10391	-0.035248	0.016632	-0.017548	-0.004425	0.091553	0.24277	-0.12299	0.14938	0.23025	0.003357	0.046082	0.001373	-0.37064	-0.10208	-0.004578	-0.001831
21.588	-0.001984	-0.016785	-0.17212	0.014343	0.018616	0.21622	-0.045319	-0.000153	-0.055847	0.48126	-0.016022	-0.064697	0.097961	-0.028534	-0.11871	-0.1445	-0.003967	-0.025024	-0.13763	0.007782	0.025177	0.13901	-0.059357	0.1712	0.22629	0.008087	0.049286	-0.006256	-0.42145	-0.14999	0.000153	0.000916
21.589	-0.009766	-0.042114	-0.15869	-0.00351	0.000153	0.25787	0.15213	0.010834	-0.25192	-0.23209	-0.023193	-0.13886	0.23789	0.15656	-0.10864	0.004425	0.025787	-0.055847	-0.13168	-0.011444	-0.025635	0.058136	-0.063019	0.18784	0.18219	0.002899	0.18951	-0.005798	-0.32806	-0.072021	0.001373	-0.009003
21.59	-0.020599	-0.023956	-0.11047	-0.001221	-0.014343	0.27756	0.19684	0.014343	-0.35034	-0.19745	-0.00885	-0.058289	0.41153	0.29022	-0.13596	0.035706	0.043335	-0.039978	-0.086823	-0.043182	-0.084991	0.011292	0.02243	0.10986	0.12131	-0.007629	0.18555	-0.00351	-0.21347	0.06546	0.001068	0.001221
